<?xml version="1.0" encoding="UTF-8"?>
<svg version="1.1" xmlns="http://www.w3.org/2000/svg" width="278" height="255">
<path d="M0 0 C2.55114835 1.78326539 2.99739717 2.9896418 3.765625 6.046875 C5.44522256 18.88766923 4.8590513 30.45149998 1.30883789 42.92700195 C-0.35673921 49.28414867 0.02113881 54.98938408 0.73828125 61.4765625 C0.99150896 64.88568779 0.71192301 67.67086361 0 71 C0.71285156 71.02578125 1.42570312 71.0515625 2.16015625 71.078125 C8.56916582 71.45766258 12.7001799 72.34901282 18 76 C17.67 76.66 17.34 77.32 17 78 C16.3709375 77.73445313 15.741875 77.46890625 15.09375 77.1953125 C9.77088028 74.9988271 4.62102764 73.24911725 -1 72 C-1.33 73.98 -1.66 75.96 -2 78 C-1.0925 78.04125 -0.185 78.0825 0.75 78.125 C6.55645362 78.94937304 12.17506771 81.7504005 17 85 C17.65478516 87.10424805 17.65478516 87.10424805 18 89 C16.90300781 88.43410156 15.80601562 87.86820312 14.67578125 87.28515625 C13.22151727 86.54395074 11.76708107 85.80308305 10.3125 85.0625 C9.59126953 84.68931641 8.87003906 84.31613281 8.12695312 83.93164062 C4.43494258 82.06034761 1.16306904 80.51730444 -3 80 C-3.99 81.98 -3.99 81.98 -5 84 C-4.175 84.061875 -3.35 84.12375 -2.5 84.1875 C1.91927689 85.21340356 5.49602588 87.10650347 9 90 C9.33 90.99 9.66 91.98 10 93 C7.83726156 91.95868149 5.8213867 90.88262555 3.8125 89.5625 C0.04522372 87.46956873 -3.89218993 86.2618763 -8 85 C-7.39671875 85.44730469 -6.7934375 85.89460938 -6.171875 86.35546875 C-1.89830703 89.58821614 1.90273757 92.55610173 5 97 C4.67 97.66 4.34 98.32 4 99 C3.40832031 98.44570312 2.81664062 97.89140625 2.20703125 97.3203125 C1.41683594 96.59585938 0.62664062 95.87140625 -0.1875 95.125 C-0.96480469 94.40570313 -1.74210937 93.68640625 -2.54296875 92.9453125 C-4.97689776 91.0182908 -7.07536646 89.98699889 -10 89 C-11.65 90.32 -13.3 91.64 -15 93 C-14.58427734 93.88751953 -14.58427734 93.88751953 -14.16015625 94.79296875 C-13.61681641 95.97826172 -13.61681641 95.97826172 -13.0625 97.1875 C-12.70285156 97.96480469 -12.34320313 98.74210937 -11.97265625 99.54296875 C-8.31107799 108.79249778 -9.17570003 118.98557863 -13 128 C-13.66 128 -14.32 128 -15 128 C-14.98428955 127.35039307 -14.9685791 126.70078613 -14.95239258 126.03149414 C-14.88940663 123.04192069 -14.85080979 120.05248751 -14.8125 117.0625 C-14.78736328 116.04091797 -14.76222656 115.01933594 -14.73632812 113.96679688 C-14.67807139 107.88867773 -14.63560437 101.31149716 -18 96 C-22.18103312 94.23697308 -26.06725233 95.79574291 -30.25 96.9375 C-30.99507813 97.13279297 -31.74015625 97.32808594 -32.5078125 97.52929688 C-34.34079386 98.01104198 -36.17071818 98.50439225 -38 99 C-38 99.99 -38 100.98 -38 102 C-36.02 102.99 -36.02 102.99 -34 104 C-34.23674232 110.98389844 -34.23674232 110.98389844 -36.26171875 113.6796875 C-38.39976149 115.58615382 -40.1332854 116.97373592 -43.0625 117.0625 C-47.21410805 114.78581171 -49.58305175 113.38114108 -51 108.6875 C-51 104.23034285 -50.00558077 101.93093832 -48 98 C-48.83660156 98.03480469 -49.67320312 98.06960937 -50.53515625 98.10546875 C-59.82922521 98.32160989 -67.96859777 97.12503582 -77 95 C-77.495 96.485 -77.495 96.485 -78 98 C-79.66666667 98.66666667 -81.33333333 99.33333333 -83 100 C-83.33 100.99 -83.66 101.98 -84 103 C-84.66 103 -85.32 103 -86 103 C-86.2784375 103.56460938 -86.556875 104.12921875 -86.84375 104.7109375 C-87.61053803 106.22897056 -88.40216548 107.73472539 -89.21875 109.2265625 C-92.33910191 115.06770906 -94.06605483 120.44844436 -95 127 C-96.32 127 -97.64 127 -99 127 C-98.75540425 114.7702123 -91.16033171 103.99383626 -82.6875 95.75 C-80.76228767 94.00499645 -80.76228767 94.00499645 -80 91 C-82.21937708 89.71811003 -82.21937708 89.71811003 -85 89 C-87.62541031 89.947646 -87.62541031 89.947646 -90.0625 91.6875 C-90.89910156 92.22761719 -91.73570313 92.76773438 -92.59765625 93.32421875 C-94.76896501 94.83883901 -96.89691802 96.39233225 -99 98 C-96.66271834 92.05055578 -91.5481423 89.5805313 -86 87 C-86.99 85.35 -87.98 83.7 -89 82 C-95.86151682 82.83083085 -100.56619509 84.56745834 -106.08984375 88.7578125 C-108 90 -108 90 -111 90 C-105.2840052 84.45122845 -100.25926682 80.32870418 -92 79.8125 C-91.01 79.9053125 -91.01 79.9053125 -90 80 C-90.99 77.03 -90.99 77.03 -92 74 C-98.46836208 74.29334975 -102.53607403 75.54323051 -108 79 C-108.66 79 -109.32 79 -110 79 C-109 76 -109 76 -106.92578125 74.83203125 C-106.06339844 74.49558594 -105.20101562 74.15914063 -104.3125 73.8125 C-103.46300781 73.46832031 -102.61351563 73.12414062 -101.73828125 72.76953125 C-98.71464534 71.91980761 -96.12567721 71.86728457 -93 72 C-93.0951585 56.00447333 -93.0951585 56.00447333 -97.01171875 40.6328125 C-101.24594338 29.35270419 -101.86888231 14.39010501 -98 3 C-97 2 -97 2 -93.6875 1.5625 C-83.86853024 1.70327376 -75.18194303 8.96220528 -68 15 C-67.30519531 15.73605469 -66.61039063 16.47210938 -65.89453125 17.23046875 C-61.50832519 19.91191456 -57.61691858 19.14855915 -52.625 18.6875 C-50.78435101 18.53926846 -48.94319312 18.39721015 -47.1015625 18.26171875 C-46.2237915 18.19452637 -45.34602051 18.12733398 -44.44165039 18.05810547 C-42 18 -42 18 -38.22265625 18.73828125 C-34.52139885 19.03886821 -33.18326972 18.23019873 -30.37109375 15.88671875 C-29.85675781 15.42910156 -29.34242188 14.97148438 -28.8125 14.5 C-27.6881383 13.56741027 -26.55912731 12.64040044 -25.42578125 11.71875 C-24.85939941 11.25726563 -24.29301758 10.79578125 -23.70947266 10.3203125 C-17.47953529 5.50861566 -8.26092916 -1.08696436 0 0 Z M-10.375 6.75 C-10.99294434 7.05494385 -11.61088867 7.3598877 -12.24755859 7.67407227 C-16.35396266 9.81167388 -19.57659355 12.30227354 -22.96826172 15.4309082 C-29.23431362 21.12908184 -33.70511502 22.87282212 -42.25 22.5625 C-44.78057604 22.40588225 -47.3086703 22.22669096 -49.83740234 22.04296875 C-52.63283261 21.98742622 -54.93253676 22.65648395 -57.5625 23.5625 C-59.78125 24.12890625 -59.78125 24.12890625 -62 24 C-66.11845747 21.48513732 -69.46672209 18.26348283 -73 15 C-78.37992949 10.92750822 -84.4350588 6.82010798 -91 5 C-93.20127423 5.33151408 -93.20127423 5.33151408 -95 6 C-95.33 7.155 -95.66 8.31 -96 9.5 C-96.2784375 10.47453125 -96.2784375 10.47453125 -96.5625 11.46875 C-97.77111006 18.46142252 -96.67150678 24.95508844 -95.25 31.8125 C-95.07315674 32.69687744 -94.89631348 33.58125488 -94.71411133 34.49243164 C-93.73578331 39.18314585 -92.5616357 43.51009928 -90.6875 47.9375 C-88.58441901 53.11806245 -89.13133323 57.39258333 -89.74609375 62.8671875 C-90.4548631 71.6123108 -87.51004341 79.24538826 -82 86 C-69.6636003 96.99504487 -53.68798467 96.88558559 -38 96 C-26.1667498 94.92354085 -15.97360429 92.09219452 -8.0625 82.6875 C-2.31657394 74.58357598 -0.84707138 66.3739393 -2.375 56.6015625 C-3.39295005 50.04850904 -2.11346925 45.4108715 0.0078125 39.1640625 C1.38789686 34.76300606 1.83241815 30.59028551 2 26 C2.03996094 25.10539062 2.07992187 24.21078125 2.12109375 23.2890625 C2.27197165 16.95219052 1.49481128 11.15275001 0 5 C-4.10171778 3.27927937 -6.56167261 4.84769938 -10.375 6.75 Z M-45 98 C-44.67 99.65 -44.34 101.3 -44 103 C-43.01 102.67 -42.02 102.34 -41 102 C-41 100.68 -41 99.36 -41 98 C-42.32 98 -43.64 98 -45 98 Z M-40 103 C-41.34977849 103.63270867 -42.68352881 104.30062468 -44 105 C-46.25 104.625 -46.25 104.625 -48 104 C-49.21306613 107.6033139 -49.21306613 107.6033139 -48 111 C-45.02236957 113.26325246 -45.02236957 113.26325246 -42 115 C-38.64888166 112.76592111 -37.18446044 111.73784176 -36.1875 107.75 C-36.125625 106.8425 -36.06375 105.935 -36 105 C-37.76529595 103.78309467 -37.76529595 103.78309467 -40 103 Z " fill="#B2A87E" transform="translate(198,37)"/>
<path d="M0 0 C0.495 1.98 0.495 1.98 1 4 C1.71285156 4.02578125 2.42570312 4.0515625 3.16015625 4.078125 C9.56916582 4.45766258 13.7001799 5.34901282 19 9 C18.67 9.66 18.34 10.32 18 11 C17.3709375 10.73445313 16.741875 10.46890625 16.09375 10.1953125 C10.77088028 7.9988271 5.62102764 6.24911725 0 5 C-0.33 6.98 -0.66 8.96 -1 11 C0.36125 11.061875 0.36125 11.061875 1.75 11.125 C7.55645362 11.94937304 13.17506771 14.7504005 18 18 C18.65478516 20.10424805 18.65478516 20.10424805 19 22 C17.90300781 21.43410156 16.80601562 20.86820313 15.67578125 20.28515625 C14.22151727 19.54395074 12.76708107 18.80308305 11.3125 18.0625 C10.59126953 17.68931641 9.87003906 17.31613281 9.12695312 16.93164062 C5.43494258 15.06034761 2.16306904 13.51730444 -2 13 C-2.66 14.32 -3.32 15.64 -4 17 C-3.175 17.061875 -2.35 17.12375 -1.5 17.1875 C2.91927689 18.21340356 6.49602588 20.10650347 10 23 C10.495 24.485 10.495 24.485 11 26 C8.83726156 24.95868149 6.8213867 23.88262555 4.8125 22.5625 C1.04522372 20.46956873 -2.89218993 19.2618763 -7 18 C-6.39671875 18.44730469 -5.7934375 18.89460938 -5.171875 19.35546875 C-0.89830703 22.58821614 2.90273757 25.55610173 6 30 C5.67 30.66 5.34 31.32 5 32 C4.40832031 31.44570312 3.81664062 30.89140625 3.20703125 30.3203125 C2.41683594 29.59585938 1.62664062 28.87140625 0.8125 28.125 C0.03519531 27.40570313 -0.74210937 26.68640625 -1.54296875 25.9453125 C-3.97689776 24.0182908 -6.07536646 22.98699889 -9 22 C-10.65 23.32 -12.3 24.64 -14 26 C-13.72285156 26.59167969 -13.44570312 27.18335938 -13.16015625 27.79296875 C-12.61681641 28.97826172 -12.61681641 28.97826172 -12.0625 30.1875 C-11.52302734 31.35345703 -11.52302734 31.35345703 -10.97265625 32.54296875 C-7.31107799 41.79249778 -8.17570003 51.98557863 -12 61 C-12.66 61 -13.32 61 -14 61 C-13.97643433 60.0255896 -13.97643433 60.0255896 -13.95239258 59.03149414 C-13.88940663 56.04192069 -13.85080979 53.05248751 -13.8125 50.0625 C-13.78736328 49.04091797 -13.76222656 48.01933594 -13.73632812 46.96679688 C-13.67807139 40.88867773 -13.63560437 34.31149716 -17 29 C-21.18103312 27.23697308 -25.06725233 28.79574291 -29.25 29.9375 C-30.36761719 30.23043945 -30.36761719 30.23043945 -31.5078125 30.52929688 C-33.34079386 31.01104198 -35.17071818 31.50439225 -37 32 C-37 32.99 -37 33.98 -37 35 C-35.68 35.66 -34.36 36.32 -33 37 C-33.23674232 43.98389844 -33.23674232 43.98389844 -35.26171875 46.6796875 C-37.39976149 48.58615382 -39.1332854 49.97373592 -42.0625 50.0625 C-46.21410805 47.78581171 -48.58305175 46.38114108 -50 41.6875 C-50 37.23034285 -49.00558077 34.93093832 -47 31 C-50.3 31 -53.6 31 -57 31 C-57 30.34 -57 29.68 -57 29 C-55.741875 28.96261719 -54.48375 28.92523438 -53.1875 28.88671875 C-30.63888595 28.61772073 -30.63888595 28.61772073 -11 19 C-6.77141383 14.13910187 -3.67988632 9.26139445 -2 3 C-1.34 2.01 -0.68 1.02 0 0 Z M-44 31 C-43.67 32.65 -43.34 34.3 -43 36 C-42.01 35.67 -41.02 35.34 -40 35 C-40 33.68 -40 32.36 -40 31 C-41.32 31 -42.64 31 -44 31 Z M-39 36 C-40.34977849 36.63270867 -41.68352881 37.30062468 -43 38 C-45.25 37.625 -45.25 37.625 -47 37 C-48.21306613 40.6033139 -48.21306613 40.6033139 -47 44 C-44.02236957 46.26325246 -44.02236957 46.26325246 -41 48 C-37.64888166 45.76592111 -36.18446044 44.73784176 -35.1875 40.75 C-35.125625 39.8425 -35.06375 38.935 -35 38 C-36.76529595 36.78309467 -36.76529595 36.78309467 -39 36 Z " fill="#B7B489" transform="translate(197,104)"/>
<path d="M0 0 C2.1875 1.6875 2.1875 1.6875 3.6875 3.3125 C5.70286084 5.1599141 7.52583049 5.32781493 10.1875 5.6875 C10.1875 6.3475 10.1875 7.0075 10.1875 7.6875 C7.54011084 9.1481285 6.29301666 9.6875 3.1875 9.6875 C3.31125 10.409375 3.435 11.13125 3.5625 11.875 C3.1875 14.6875 3.1875 14.6875 0.6875 17.5 C-3.12297554 20.39632345 -6.1527509 20.06944665 -10.8125 19.6875 C-11.8025 19.6875 -12.7925 19.6875 -13.8125 19.6875 C-15.49486471 19.06150383 -17.1648962 18.39997732 -18.8125 17.6875 C-19.31403391 10.76354572 -19.04267813 6.32773751 -14.8125 0.6875 C-10.65574755 -2.72697523 -4.61300702 -2.15273661 0 0 Z M-3.8125 2.6875 C-3.8125 4.0075 -3.8125 5.3275 -3.8125 6.6875 C-2.4925 6.3575 -1.1725 6.0275 0.1875 5.6875 C-0.1425 4.6975 -0.4725 3.7075 -0.8125 2.6875 C-1.8025 2.6875 -2.7925 2.6875 -3.8125 2.6875 Z M-13.8125 11.6875 C-13.8125 13.0075 -13.8125 14.3275 -13.8125 15.6875 C-12.4925 16.0175 -11.1725 16.3475 -9.8125 16.6875 C-10.78135372 15.00253702 -11.78236723 13.33571244 -12.8125 11.6875 C-13.1425 11.6875 -13.4725 11.6875 -13.8125 11.6875 Z " fill="#E5E09D" transform="translate(179.8125,88.3125)"/>
<path d="M0 0 C3.24347605 1.69863078 5.51920709 3.76367538 6.875 7.25 C7.05318277 11.17002084 7.07692169 15.07699404 7 19 C4.35261084 20.4606285 3.10551666 21 0 21 C-1.258125 21.103125 -2.51625 21.20625 -3.8125 21.3125 C-7.05832232 21.3125 -8.86105036 20.80395866 -11.4375 18.8125 C-13.99909564 16.00099259 -14.78698668 14.72773314 -15 11 C-17.97 10.505 -17.97 10.505 -21 10 C-21 9.01 -21 8.02 -21 7 C-19.02 7 -17.04 7 -15 7 C-14.773125 6.401875 -14.54625 5.80375 -14.3125 5.1875 C-11.160764 -0.06539333 -5.78213443 -1.20837575 0 0 Z M0 4 C0 5.32 0 6.64 0 8 C0.99 8 1.98 8 3 8 C2.67 6.68 2.34 5.36 2 4 C1.34 4 0.68 4 0 4 Z M-8 11 C-8 11.66 -8 12.32 -8 13 C-7.34 13 -6.68 13 -6 13 C-6 12.34 -6 11.68 -6 11 C-6.66 11 -7.32 11 -8 11 Z M-11 12 C-10.81171228 14.44480079 -10.81171228 14.44480079 -10 17 C-8.03241727 18.36020151 -8.03241727 18.36020151 -6 19 C-7.98 15.535 -7.98 15.535 -10 12 C-10.33 12 -10.66 12 -11 12 Z " fill="#DDCA80" transform="translate(136,87)"/>
<path d="M0 0 C2.55114835 1.78326539 2.99739717 2.9896418 3.765625 6.046875 C5.44479311 18.88438605 4.86929235 30.45619058 1.30664062 42.92700195 C-0.36704042 49.29430061 0.05919696 54.98617118 0.8359375 61.4765625 C1.00851142 65.18279288 0.39463167 67.59206548 -1 71 C-3 69 -3 69 -3.16015625 66.96875 C-3.12792969 66.1540625 -3.09570312 65.339375 -3.0625 64.5 C-2.96551614 60.93201498 -3.16868021 57.70419697 -3.75 54.1875 C-4.38831431 48.69282138 -2.74587441 44.32836809 -0.9921875 39.1640625 C0.38789686 34.76300606 0.83241815 30.59028551 1 26 C1.03996094 25.10539062 1.07992187 24.21078125 1.12109375 23.2890625 C1.27197165 16.95219052 0.49481128 11.15275001 -1 5 C-11.39821161 6.36023117 -19.26569896 12.55735958 -26.87695312 19.39208984 C-30.08129389 22.1090177 -32.14987437 23.31467022 -36.42578125 23.3203125 C-37.60527344 23.21460937 -38.78476563 23.10890625 -40 23 C-39.34 22.34 -38.68 21.68 -38 21 C-39.32 20.34 -40.64 19.68 -42 19 C-40.97261719 19.09410156 -39.94523438 19.18820313 -38.88671875 19.28515625 C-34.28362819 18.94744207 -32.15026442 17.35281554 -28.8125 14.4375 C-9.68168436 -1.27390584 -9.68168436 -1.27390584 0 0 Z " fill="#D6C78B" transform="translate(198,37)"/>
<path d="M0 0 C13.53 0 27.06 0 41 0 C41 2.31 41 4.62 41 7 C40.01 7 39.02 7 38 7 C38 6.34 38 5.68 38 5 C37.34 5 36.68 5 36 5 C36 5.66 36 6.32 36 7 C32.7 7 29.4 7 26 7 C25.67 5.35 25.34 3.7 25 2 C24.34 2 23.68 2 23 2 C23 3.65 23 5.3 23 7 C22.01 7 21.02 7 20 7 C20 5.35 20 3.7 20 2 C19.34 2 18.68 2 18 2 C18 3.65 18 5.3 18 7 C12.06 7 6.12 7 0 7 C0 4.69 0 2.38 0 0 Z M10 2 C10 2.99 10 3.98 10 5 C10.66 5 11.32 5 12 5 C12 4.01 12 3.02 12 2 C11.34 2 10.68 2 10 2 Z M28 2 C28 2.99 28 3.98 28 5 C28.66 5 29.32 5 30 5 C30 4.01 30 3.02 30 2 C29.34 2 28.68 2 28 2 Z " fill="#AC9769" transform="translate(167,218)"/>
<path d="M0 0 C1.875 1.625 1.875 1.625 3 4 C2.80307033 7.54473411 2.22362657 10.43076874 0.92578125 13.734375 C-0.16665116 17.58784966 -0.00548839 20.94835985 0.375 24.875 C0.43171875 25.56335938 0.4884375 26.25171875 0.546875 26.9609375 C0.68692828 28.64157689 0.84192245 30.32096005 1 32 C-2 31 -2 31 -3.16796875 29.28125 C-6.23486542 20.87248166 -3.44965306 11.22383528 -1 3 C-6.99515995 3.93028344 -10.12664745 5.19987935 -13.8125 10.09765625 C-18.0022884 16.809587 -17.20622781 24.38102811 -17 32 C-18.32 31.67 -19.64 31.34 -21 31 C-22.7803095 22.07910129 -21.14588192 15.47817369 -16.640625 7.6328125 C-12.78645757 1.97588934 -7.25430878 -3.02262866 0 0 Z " fill="#D2CA91" transform="translate(90,133)"/>
<path d="M0 0 C1.39456452 0.00667256 2.78911118 0.01863093 4.18359375 0.03515625 C4.89451172 0.03966797 5.60542969 0.04417969 6.33789062 0.04882812 C8.09899388 0.06064761 9.86005411 0.07858362 11.62109375 0.09765625 C11.66218897 2.81907272 11.60625757 5.17018871 11.05859375 7.84765625 C10.84203125 8.96140625 10.84203125 8.96140625 10.62109375 10.09765625 C10.95109375 10.42765625 11.28109375 10.75765625 11.62109375 11.09765625 C11.62109375 12.74765625 11.62109375 14.39765625 11.62109375 16.09765625 C6.67109375 16.09765625 1.72109375 16.09765625 -3.37890625 16.09765625 C-4.6178443 5.87641731 -4.6178443 5.87641731 -4.37890625 1.09765625 C-3.37890625 0.09765625 -3.37890625 0.09765625 0 0 Z M1.62109375 5.09765625 C1.62109375 5.42765625 1.62109375 5.75765625 1.62109375 6.09765625 C3.60109375 6.09765625 5.58109375 6.09765625 7.62109375 6.09765625 C7.62109375 5.76765625 7.62109375 5.43765625 7.62109375 5.09765625 C5.64109375 5.09765625 3.66109375 5.09765625 1.62109375 5.09765625 Z " fill="#BCA667" transform="translate(211.37890625,178.90234375)"/>
<path d="M0 0 C3.3039577 0.05149025 5.71150222 0.23768071 8.875 1.25 C11.30531218 3.84233299 11.6594599 5.81933843 11.890625 9.3125 C11.68868329 12.09480804 10.81093259 13.40988162 8.75 15.25 C5.63370851 16.28876383 3.3905571 16.38361625 0.125 16.375 C-0.85726562 16.37757813 -1.83953125 16.38015625 -2.8515625 16.3828125 C-5.25 16.25 -5.25 16.25 -6.25 15.25 C-6.34909302 12.91839945 -6.37970504 10.58370058 -6.375 8.25 C-6.37757813 6.97125 -6.38015625 5.6925 -6.3828125 4.375 C-6.1693461 -0.64773878 -4.58203533 0.07350859 0 0 Z M-0.25 5.25 C-0.25 7.23 -0.25 9.21 -0.25 11.25 C1.4 11.25 3.05 11.25 4.75 11.25 C5.4314823 9.35820797 5.4314823 9.35820797 5.75 7.25 C5.09 6.59 4.43 5.93 3.75 5.25 C2.43 5.25 1.11 5.25 -0.25 5.25 Z " fill="#B39B60" transform="translate(192.25,178.75)"/>
<path d="M0 0 C4.95 0 9.9 0 15 0 C15.33 1.32 15.66 2.64 16 4 C15.01 4.66 14.02 5.32 13 6 C12.74969023 8.58380177 12.74969023 8.58380177 13 11 C13.99 11.33 14.98 11.66 16 12 C15.67 13.32 15.34 14.64 15 16 C10.05 16 5.1 16 0 16 C0 10.72 0 5.44 0 0 Z " fill="#977544" transform="translate(85,179)"/>
<path d="M0 0 C5 0 5 0 6.58203125 1.3125 C7.72135417 2.875 8.86067708 4.4375 10 6 C10.66 4.02 11.32 2.04 12 0 C13.65 0.33 15.3 0.66 17 1 C17.02685412 3.31243792 17.04632841 5.6249627 17.0625 7.9375 C17.07410156 9.22527344 17.08570312 10.51304687 17.09765625 11.83984375 C17 15 17 15 16 16 C13.75 16.4375 13.75 16.4375 11 16 C9.01550254 14.15533163 7.60970204 12.20759137 6 10 C5.67 11.98 5.34 13.96 5 16 C3.35 16 1.7 16 0 16 C0 10.72 0 5.44 0 0 Z " fill="#886738" transform="translate(64,179)"/>
<path d="M0 0 C2.4193901 2.57060198 2.43330321 3.66436843 2.625 7.125 C2.36979671 11.732091 2.36979671 11.732091 0 14.25 C-4.61162694 15.59505786 -8.81276937 15.91015971 -13.4375 14.25 C-15 13.125 -15 13.125 -16 11.125 C-16.46622517 3.78195364 -16.46622517 3.78195364 -14.625 1.1875 C-9.99024347 -1.84291773 -5.1462419 -1.50098722 0 0 Z M-9 4.125 C-10.29633621 5.19145115 -10.29633621 5.19145115 -10.0625 7.6875 C-10.041875 8.491875 -10.02125 9.29625 -10 10.125 C-8.02 10.125 -6.04 10.125 -4 10.125 C-3.67 8.475 -3.34 6.825 -3 5.125 C-4.9914056 4.74366701 -6.99279077 4.41174418 -9 4.125 Z " fill="#AE9355" transform="translate(180,179.875)"/>
<path d="M0 0 C0.64066406 0.40992187 1.28132813 0.81984375 1.94140625 1.2421875 C9.86904956 6.1807194 16.75848493 8.20367897 26 9 C25.34 9.33 24.68 9.66 24 10 C24 10.66 24 11.32 24 12 C17.50149789 11.48446121 11.33773468 10.53332291 5 9 C4.67 9.99 4.34 10.98 4 12 C2.33333333 12.66666667 0.66666667 13.33333333 -1 14 C-1.33 14.99 -1.66 15.98 -2 17 C-2.66 17 -3.32 17 -4 17 C-4.2784375 17.56460938 -4.556875 18.12921875 -4.84375 18.7109375 C-5.61053803 20.22897056 -6.40216548 21.73472539 -7.21875 23.2265625 C-10.33910191 29.06770906 -12.06605483 34.44844436 -13 41 C-14.32 41 -15.64 41 -17 41 C-16.75540425 28.7702123 -9.16033171 17.99383626 -0.6875 9.75 C1.23771233 8.00499645 1.23771233 8.00499645 2 5 C1.01 4.67 0.02 4.34 -1 4 C-0.67 2.68 -0.34 1.36 0 0 Z " fill="#DFDCA3" transform="translate(116,123)"/>
<path d="M0 0 C0.33 1.32 0.66 2.64 1 4 C1.71285156 4.02578125 2.42570313 4.0515625 3.16015625 4.078125 C9.56916582 4.45766258 13.7001799 5.34901282 19 9 C18.67 9.66 18.34 10.32 18 11 C17.3709375 10.73445313 16.741875 10.46890625 16.09375 10.1953125 C10.77088028 7.9988271 5.62102764 6.24911725 0 5 C-0.33 6.98 -0.66 8.96 -1 11 C0.36125 11.061875 0.36125 11.061875 1.75 11.125 C7.55645362 11.94937304 13.17506771 14.7504005 18 18 C18.65478516 20.10424805 18.65478516 20.10424805 19 22 C17.90300781 21.43410156 16.80601562 20.86820313 15.67578125 20.28515625 C14.22151727 19.54395074 12.76708107 18.80308305 11.3125 18.0625 C10.59126953 17.68931641 9.87003906 17.31613281 9.12695312 16.93164062 C5.43494258 15.06034761 2.16306904 13.51730444 -2 13 C-2.66 14.32 -3.32 15.64 -4 17 C-3.175 17.061875 -2.35 17.12375 -1.5 17.1875 C2.91927689 18.21340356 6.49602588 20.10650347 10 23 C10.33 23.99 10.66 24.98 11 26 C8.83726156 24.95868149 6.8213867 23.88262555 4.8125 22.5625 C1.04522372 20.46956873 -2.89218993 19.2618763 -7 18 C-6.09507812 18.67095703 -6.09507812 18.67095703 -5.171875 19.35546875 C-0.89830703 22.58821614 2.90273757 25.55610173 6 30 C5.67 30.66 5.34 31.32 5 32 C4.40832031 31.45730469 3.81664062 30.91460937 3.20703125 30.35546875 C2.41683594 29.64003906 1.62664062 28.92460937 0.8125 28.1875 C0.03519531 27.47980469 -0.74210938 26.77210938 -1.54296875 26.04296875 C-3.91984915 24.06664371 -6.31078866 22.51417406 -9 21 C-8.51730665 15.93171986 -6.85246465 13.14903949 -4 9 C-3.29835358 7.01200182 -2.62627128 5.01301483 -2 3 C-1.34 2.01 -0.68 1.02 0 0 Z " fill="#8F8A64" transform="translate(197,104)"/>
<path d="M0 0 C3.14624993 -0.26218749 4.61837017 -0.24754367 7.3125 1.5 C8.1478125 2.2425 8.1478125 2.2425 9 3 C9.391875 2.505 9.78375 2.01 10.1875 1.5 C12.55091715 -0.45593143 14.01435003 -0.24207973 17 0 C16.35455571 3.48539917 14.89865603 6.02819057 13 9 C14.32 10.65 15.64 12.3 17 14 C16.67 14.66 16.34 15.32 16 16 C11.44615385 16.36923077 11.44615385 16.36923077 9.1875 14.5 C8.795625 14.005 8.40375 13.51 8 13 C7.608125 13.495 7.21625 13.99 6.8125 14.5 C4.44908285 16.45593143 2.98564997 16.24207973 0 16 C0.53091974 13.61086117 1.1467716 11.70645681 2.25 9.5 C2.4975 8.675 2.745 7.85 3 7 C1.67662714 4.84659471 1.67662714 4.84659471 0 3 C0 2.01 0 1.02 0 0 Z " fill="#9D7F4A" transform="translate(104,179)"/>
<path d="M0 0 C1.25159912 0.00523682 2.50319824 0.01047363 3.79272461 0.01586914 C4.78942421 0.01799156 4.78942421 0.01799156 5.80625916 0.02015686 C7.93590735 0.02577021 10.06545175 0.03832485 12.19506836 0.05102539 C13.63582205 0.05603868 15.07657739 0.06060188 16.51733398 0.06469727 C20.05577938 0.07574394 23.59416375 0.09301747 27.13256836 0.11352539 C26.80256836 2.42352539 26.47256836 4.73352539 26.13256836 7.11352539 C16.23256836 7.11352539 6.33256836 7.11352539 -3.86743164 7.11352539 C-3.86743164 0.15311671 -3.86743164 0.15311671 0 0 Z M-0.86743164 2.11352539 C-0.86743164 3.10352539 -0.86743164 4.09352539 -0.86743164 5.11352539 C0.45256836 5.11352539 1.77256836 5.11352539 3.13256836 5.11352539 C3.13256836 4.12352539 3.13256836 3.13352539 3.13256836 2.11352539 C1.81256836 2.11352539 0.49256836 2.11352539 -0.86743164 2.11352539 Z M6.13256836 2.11352539 C6.13256836 3.10352539 6.13256836 4.09352539 6.13256836 5.11352539 C6.79256836 5.11352539 7.45256836 5.11352539 8.13256836 5.11352539 C8.13256836 4.12352539 8.13256836 3.13352539 8.13256836 2.11352539 C7.47256836 2.11352539 6.81256836 2.11352539 6.13256836 2.11352539 Z M14.13256836 3.11352539 C14.13256836 3.77352539 14.13256836 4.43352539 14.13256836 5.11352539 C14.79256836 5.11352539 15.45256836 5.11352539 16.13256836 5.11352539 C16.13256836 4.45352539 16.13256836 3.79352539 16.13256836 3.11352539 C15.47256836 3.11352539 14.81256836 3.11352539 14.13256836 3.11352539 Z " fill="#9E8B5B" transform="translate(138.867431640625,217.886474609375)"/>
<path d="M0 0 C2.35546875 0.10546875 2.35546875 0.10546875 5 1 C6.80078125 3.36328125 6.80078125 3.36328125 8.3125 6.3125 C8.82425781 7.27800781 9.33601563 8.24351562 9.86328125 9.23828125 C11 12 11 12 11 16 C9.35 16 7.7 16 6 16 C5.67 15.34 5.34 14.68 5 14 C3.02 14 1.04 14 -1 14 C-1.33 14.66 -1.66 15.32 -2 16 C-3.65 16 -5.3 16 -7 16 C-6.56688677 10.36952802 -4.07551604 4.07551604 0 0 Z " fill="#A9874B" transform="translate(131,179)"/>
<path d="M0 0 C-0.33 1.65 -0.66 3.3 -1 5 C-3.64 5 -6.28 5 -9 5 C-9.33 6.65 -9.66 8.3 -10 10 C-6.7 10 -3.4 10 0 10 C0 11.32 0 12.64 0 14 C-2.43954658 15.21977329 -4.15305849 15.20153813 -6.875 15.25 C-7.73867187 15.27578125 -8.60234375 15.3015625 -9.4921875 15.328125 C-12.56244187 14.92640947 -13.86501312 14.23711609 -16 12 C-16.8101172 8.60309479 -16.64533201 5.42256439 -16 2 C-12.34061466 -2.01351941 -4.82023611 -2.41011806 0 0 Z " fill="#A88A52" transform="translate(161,180)"/>
<path d="M0 0 C19.14 0 38.28 0 58 0 C58.495 1.485 58.495 1.485 59 3 C39.53 3 20.06 3 0 3 C0 2.01 0 1.02 0 0 Z " fill="#DCD198" transform="translate(114,206)"/>
<path d="M0 0 C9.9 0 19.8 0 30 0 C30 0.66 30 1.32 30 2 C29.34 2 28.68 2 28 2 C28 3.65 28 5.3 28 7 C26.68 7 25.36 7 24 7 C24 5.35 24 3.7 24 2 C23.01 2 22.02 2 21 2 C21.66 3.65 22.32 5.3 23 7 C15.33333333 7 7.66666667 7 0 7 C0 4.69 0 2.38 0 0 Z M13 2 C13.33 2.99 13.66 3.98 14 5 C14.66 5 15.32 5 16 5 C16 4.01 16 3.02 16 2 C15.01 2 14.02 2 13 2 Z " fill="#886B3C" transform="translate(78,218)"/>
<path d="M0 0 C0.33 0 0.66 0 1 0 C2.22883064 12.48757621 2.66124388 25.01590397 -1.6875 37 C-3.43896391 42.0983207 -2.92460721 47.02990105 -2.33276367 52.29296875 C-1.87438533 56.72853403 -2.30380334 59.87792208 -4 64 C-6 62 -6 62 -6.16015625 59.96875 C-6.11181641 58.74671875 -6.11181641 58.74671875 -6.0625 57.5 C-5.96551614 53.93201498 -6.16868021 50.70419697 -6.75 47.1875 C-7.22859572 42.96439222 -6.51820924 40.08004437 -5.08984375 36.09765625 C-2.74312798 28.81852013 -2.16948408 21.85496429 -1.8125 14.25 C-1.67684738 11.75500607 -1.53772826 9.2601973 -1.39453125 6.765625 C-1.31489136 5.13802246 -1.31489136 5.13802246 -1.23364258 3.47753906 C-1 1 -1 1 0 0 Z " fill="#DDD69B" transform="translate(201,44)"/>
<path d="M0 0 C0.91644287 0.00523682 1.83288574 0.01047363 2.77709961 0.01586914 C3.76645508 0.0190918 4.75581055 0.02231445 5.77514648 0.02563477 C6.81606445 0.03401367 7.85698242 0.04239258 8.92944336 0.05102539 C10.49662109 0.05779297 10.49662109 0.05779297 12.09545898 0.06469727 C14.68600996 0.07652627 17.27644895 0.0930085 19.86694336 0.11352539 C19.86694336 2.42352539 19.86694336 4.73352539 19.86694336 7.11352539 C16.22112649 7.14240051 12.57533873 7.16028124 8.92944336 7.17602539 C7.36806641 7.18859375 7.36806641 7.18859375 5.77514648 7.20141602 C4.78579102 7.20463867 3.79643555 7.20786133 2.77709961 7.21118164 C1.4024353 7.21903687 1.4024353 7.21903687 0 7.22705078 C-2.13305664 7.11352539 -2.13305664 7.11352539 -3.13305664 6.11352539 C-3.25805664 3.61352539 -3.25805664 3.61352539 -3.13305664 1.11352539 C-2.13305664 0.11352539 -2.13305664 0.11352539 0 0 Z M-0.13305664 2.11352539 C-0.13305664 3.10352539 -0.13305664 4.09352539 -0.13305664 5.11352539 C0.52694336 4.45352539 1.18694336 3.79352539 1.86694336 3.11352539 C1.20694336 2.78352539 0.54694336 2.45352539 -0.13305664 2.11352539 Z " fill="#9D7840" transform="translate(113.133056640625,217.886474609375)"/>
<path d="M0 0 C3.23390623 2.07893972 5.8559133 3.84879791 8.53125 6.65625 C12.14942115 9.70292353 15.43614518 9.38455661 19.9921875 9.08398438 C20.94351563 8.99439453 21.89484375 8.90480469 22.875 8.8125 C23.84953125 8.74224609 24.8240625 8.67199219 25.828125 8.59960938 C28.22166815 8.42361356 30.61047086 8.22316279 33 8 C33 8.66 33 9.32 33 10 C34.65 10 36.3 10 38 10 C37.67 10.66 37.34 11.32 37 12 C34.19140625 12.34375 34.19140625 12.34375 30.5625 12.5 C25.97772409 12.71346123 22.15486043 13.18221573 17.8125 14.625 C14.23088701 15.46703484 13.26067864 15.15930361 10.046875 13.1953125 C7.24535873 10.89982928 4.62238701 8.4958492 2 6 C1.01 5.34 0.02 4.68 -1 4 C-0.67 2.68 -0.34 1.36 0 0 Z " fill="#CFBC83" transform="translate(123,47)"/>
<path d="M0 0 C0.66 0.33 1.32 0.66 2 1 C2 4.99904969 0.27413033 6.80200422 -2 10 C0.475 13.465 0.475 13.465 3 17 C3 16.34 3 15.68 3 15 C5.97 15.33 8.94 15.66 12 16 C12.433125 15.175 12.86625 14.35 13.3125 13.5 C13.869375 12.675 14.42625 11.85 15 11 C15.99 11 16.98 11 18 11 C18 13.31 18 15.62 18 18 C15.35261084 19.4606285 14.10551666 20 11 20 C9.741875 20.103125 8.48375 20.20625 7.1875 20.3125 C3.94167768 20.3125 2.13894964 19.80395866 -0.4375 17.8125 C-2.99909564 15.00099259 -3.78698668 13.72773314 -4 10 C-6.97 9.505 -6.97 9.505 -10 9 C-10 8.01 -10 7.02 -10 6 C-8.02 6 -6.04 6 -4 6 C-3.71125 5.38125 -3.4225 4.7625 -3.125 4.125 C-2 2 -2 2 0 0 Z " fill="#C9BE87" transform="translate(125,88)"/>
<path d="M0 0 C6.12071596 0.05554189 11.69485001 3.08858401 16.6875 6.4375 C18.0390625 8.640625 18.0390625 8.640625 18.6875 10.4375 C17.6975 10.9325 17.6975 10.9325 16.6875 11.4375 C14.3126537 10.35748935 12.04408136 9.23170597 9.75 8 C4.99594152 5.30938573 4.99594152 5.30938573 -0.3125 4.4375 C-0.9725 7.0775 -1.6325 9.7175 -2.3125 12.4375 C-2.9725 12.4375 -3.6325 12.4375 -4.3125 12.4375 C-4.6425 15.4075 -4.9725 18.3775 -5.3125 21.4375 C-5.6425 21.4375 -5.9725 21.4375 -6.3125 21.4375 C-6.687469 7.58447859 -6.687469 7.58447859 -4.3125 1.4375 C-3.3125 0.4375 -3.3125 0.4375 0 0 Z " fill="#AB8B54" transform="translate(104.3125,38.5625)"/>
<path d="M0 0 C0.66 0.33 1.32 0.66 2 1 C0.8553125 2.0828125 0.8553125 2.0828125 -0.3125 3.1875 C-4.51713542 7.58769986 -6.29472504 10.93463532 -7 17 C-3.7 17 -0.4 17 3 17 C2.45276317 20.37462715 1.9451 22.08235 0 25 C1.65 25 3.3 25 5 25 C6.78257471 28.23091667 7 30.32518002 7 34 C5.68 33.34 4.36 32.68 3 32 C3 30.68 3 29.36 3 28 C0.36 27.01 -2.28 26.02 -5 25 C-3.35 23.35 -1.7 21.7 0 20 C-3.3 20 -6.6 20 -10 20 C-10.60760033 13.19487627 -9.33867062 9.30021384 -5 4 C-2.1875 1.5 -2.1875 1.5 0 0 Z " fill="#C3C29C" transform="translate(183,48)"/>
<path d="M0 0 C5.06553145 1.99003021 7.58025999 5.80675106 9.75 10.625 C11 14 11 14 11 17 C8.69 17 6.38 17 4 17 C4.495 17.61875 4.99 18.2375 5.5 18.875 C7 21 7 21 7 23 C4.36 23.99 1.72 24.98 -1 26 C-0.67 27.32 -0.34 28.64 0 30 C-1.8125 31.0625 -1.8125 31.0625 -4 32 C-4.99 31.67 -5.98 31.34 -7 31 C-6.01 30.01 -5.02 29.02 -4 28 C-4.33 27.34 -4.66 26.68 -5 26 C-3.25 24 -3.25 24 -1 22 C0.32 22 1.64 22 3 22 C2.2265625 21.13375 2.2265625 21.13375 1.4375 20.25 C0 18 0 18 0.3125 15.75 C0.539375 15.1725 0.76625 14.595 1 14 C3.31 14 5.62 14 8 14 C7.72285156 13.45730469 7.44570312 12.91460937 7.16015625 12.35546875 C6.79792969 11.64003906 6.43570313 10.92460938 6.0625 10.1875 C5.70285156 9.47980469 5.34320313 8.77210937 4.97265625 8.04296875 C4 6 4 6 3 3 C2.34 3 1.68 3 1 3 C0.67 2.01 0.34 1.02 0 0 Z " fill="#B1A47C" transform="translate(118,51)"/>
<path d="M0 0 C3.3 0 6.6 0 10 0 C10 4 10 4 8.4375 6.0625 C7.963125 6.701875 7.48875 7.34125 7 8 C7.33 8.99 7.66 9.98 8 11 C10.97 11.495 10.97 11.495 14 12 C14 11.34 14 10.68 14 10 C14.66 10 15.32 10 16 10 C16 10.99 16 11.98 16 13 C12.59529617 15.41166522 10.01292901 14.86893624 6.03125 14.22265625 C3.2473874 13.91750208 0.73412365 14.47921454 -2 15 C-4 14 -4 14 -4.75 12.0625 C-4.8325 11.381875 -4.915 10.70125 -5 10 C-4.34 9.34 -3.68 8.68 -3 8 C-2.34 9.32 -1.68 10.64 -1 12 C0.32 11.67 1.64 11.34 3 11 C3.33425735 8.62625139 3.33425735 8.62625139 3 6 C1.0995533 4.15684329 1.0995533 4.15684329 -1 3 C-0.67 2.01 -0.34 1.02 0 0 Z M2 2 C3.32 2.99 4.64 3.98 6 5 C6.66 4.01 7.32 3.02 8 2 C6.02 2 4.04 2 2 2 Z " fill="#C9C99E" transform="translate(147,106)"/>
<path d="M0 0 C0.99 0 1.98 0 3 0 C3 0.66 3 1.32 3 2 C5.64 2 8.28 2 11 2 C11.33 4.97 11.66 7.94 12 11 C8.04 11 4.08 11 0 11 C0 7.37 0 3.74 0 0 Z " fill="#A47A40" transform="translate(87,183)"/>
<path d="M0 0 C0.33 0 0.66 0 1 0 C1.11069824 0.73114014 1.22139648 1.46228027 1.33544922 2.21557617 C1.84243543 5.54052998 2.35862034 8.86399264 2.875 12.1875 C3.13603516 13.91323242 3.13603516 13.91323242 3.40234375 15.67382812 C3.57636719 16.78564453 3.75039062 17.89746094 3.9296875 19.04296875 C4.08679199 20.06414795 4.24389648 21.08532715 4.40576172 22.13745117 C4.91227709 25.01065284 4.91227709 25.01065284 6.06689453 27.62231445 C7 30 7 30 7 34 C6.34 34 5.68 34 5 34 C5 33.34 5 32.68 5 32 C4.01 31.67 3.02 31.34 2 31 C-1.86934801 20.96284511 -3.01347931 10.31058209 0 0 Z " fill="#B99D66" transform="translate(100,51)"/>
<path d="M0 0 C6.875 0.875 6.875 0.875 8 2 C8.04063832 3.66617115 8.042721 5.33388095 8 7 C5.69 7.33 3.38 7.66 1 8 C1.33 8.99 1.66 9.98 2 11 C-0.31 11 -2.62 11 -5 11 C-4.5020163 7.26512223 -4.12508244 5.18762365 -2 2 C-1.34 2 -0.68 2 0 2 C0 1.34 0 0.68 0 0 Z " fill="#F3ECA0" transform="translate(168,88)"/>
<path d="M0 0 C1.32 0 2.64 0 4 0 C6.04221891 9.02529002 5.61727655 17.47356241 2 26 C1.34 26 0.68 26 0 26 C0 17.42 0 8.84 0 0 Z " fill="#BBAA72" transform="translate(183,139)"/>
<path d="M0 0 C-1.26941497 3.91402949 -2.51167694 5.79072873 -6 8 C-5.01 10.97 -4.02 13.94 -3 17 C-3.99 17 -4.98 17 -6 17 C-7.98 13.535 -7.98 13.535 -10 10 C-13.96 10.66 -17.92 11.32 -22 12 C-22.33 11.34 -22.66 10.68 -23 10 C-21.85724609 9.67128906 -21.85724609 9.67128906 -20.69140625 9.3359375 C-14.31143818 7.37654656 -9.1168241 5.14871234 -3.7421875 1.171875 C-2 0 -2 0 0 0 Z " fill="#CDC78F" transform="translate(189,122)"/>
<path d="M0 0 C2 2 2 2 2.5 4.3125 C1.88684056 7.60823199 0.49956614 9.05273476 -2.14453125 11.0625 C-5.46682912 12.74113471 -8.33268978 12.3005992 -12 12 C-12.99 12 -13.98 12 -15 12 C-15.99 11.67 -16.98 11.34 -18 11 C-18 8.69 -18 6.38 -18 4 C-17.01 4 -16.02 4 -15 4 C-15 5.32 -15 6.64 -15 8 C-14.319375 7.835 -13.63875 7.67 -12.9375 7.5 C-9.5835178 6.92910941 -6.39610195 6.93340977 -3 7 C-2.01 4.69 -1.02 2.38 0 0 Z " fill="#B9B987" transform="translate(181,96)"/>
<path d="M0 0 C2.35546875 0.10546875 2.35546875 0.10546875 5 1 C6.80078125 3.36328125 6.80078125 3.36328125 8.3125 6.3125 C8.82425781 7.27800781 9.33601563 8.24351562 9.86328125 9.23828125 C11 12 11 12 11 16 C9.35 16 7.7 16 6 16 C5.67 15.34 5.34 14.68 5 14 C3.02 14 1.04 14 -1 14 C-1.33 14.66 -1.66 15.32 -2 16 C-3.65 16 -5.3 16 -7 16 C-6.56688677 10.36952802 -4.07551604 4.07551604 0 0 Z M-1.625 3.4375 C-3.59565782 7.11008958 -4.25956259 10.92323871 -5 15 C-4.34 15 -3.68 15 -3 15 C-2.67 14.34 -2.34 13.68 -2 13 C0.06640625 12.5859375 0.06640625 12.5859375 2.5625 12.375 C3.38878906 12.30023438 4.21507812 12.22546875 5.06640625 12.1484375 C6.02353516 12.07496094 6.02353516 12.07496094 7 12 C7 12.66 7 13.32 7 14 C7.66 14 8.32 14 9 14 C7.68938409 9.76570244 6.05643741 5.92592596 4 2 C0.13773615 1.55828408 0.13773615 1.55828408 -1.625 3.4375 Z " fill="#968151" transform="translate(131,179)"/>
<path d="M0 0 C-0.59859155 6.34507042 -0.59859155 6.34507042 -2.1875 8.9375 C-4.88060505 10.51621675 -6.94030525 10.3187182 -10 10 C-10.99 9.34 -11.98 8.68 -13 8 C-13 6 -13 6 -11.75390625 4.48046875 C-9.85606107 2.87850144 -8.27059693 2.13671555 -5.9375 1.3125 C-5.24527344 1.06113281 -4.55304688 0.80976562 -3.83984375 0.55078125 C-2 0 -2 0 0 0 Z " fill="#E2D588" transform="translate(141,95)"/>
<path d="M0 0 C9.35384615 -0.49230769 9.35384615 -0.49230769 12.625 2 C13.07875 2.66 13.5325 3.32 14 4 C12.35 4.33 10.7 4.66 9 5 C9 4.34 9 3.68 9 3 C6.69 2.67 4.38 2.34 2 2 C2 4.97 2 7.94 2 11 C4.64 10.67 7.28 10.34 10 10 C10 11.32 10 12.64 10 14 C2.25 14.125 2.25 14.125 0 13 C0 8.71 0 4.42 0 0 Z " fill="#BEA05B" transform="translate(188,181)"/>
<path d="M0 0 C1.051875 -0.02126953 1.051875 -0.02126953 2.125 -0.04296875 C4 0.1875 4 0.1875 6 2.1875 C3.69 2.5175 1.38 2.8475 -1 3.1875 C1.475 4.1775 1.475 4.1775 4 5.1875 C2 6.1875 2 6.1875 -2 6.1875 C-2 8.1675 -2 10.1475 -2 12.1875 C-2.66 12.1875 -3.32 12.1875 -4 12.1875 C-4.33 10.2075 -4.66 8.2275 -5 6.1875 C-5.66 6.8475 -6.32 7.5075 -7 8.1875 C-6.67028521 11.48464793 -6.3773161 12.8101839 -4 15.1875 C-5.9375 14.8125 -5.9375 14.8125 -8 14.1875 C-9.58770472 11.01209056 -9.41100302 7.64559441 -9 4.1875 C-6.58881725 0.7899243 -4.03886168 0.03712189 0 0 Z " fill="#A38B55" transform="translate(173,178.8125)"/>
<path d="M0 0 C0.66 0.66 1.32 1.32 2 2 C1.94140625 4.43359375 1.94140625 4.43359375 1.5625 7.4375 C1.10917339 11.72864844 1.04546148 15.59180589 1.5625 19.875 C2.05148233 24.09858486 1.81381741 27.05227976 0 31 C-2 29 -2 29 -2.16015625 26.96875 C-2.12792969 26.1540625 -2.09570312 25.339375 -2.0625 24.5 C-1.9686218 20.87525823 -2.16011776 17.52257715 -2.6875 13.9375 C-3.29597996 8.74897496 -2.02904523 4.74590239 0 0 Z " fill="#CFCB9A" transform="translate(197,77)"/>
<path d="M0 0 C0.91007813 0.00902344 1.82015625 0.01804688 2.7578125 0.02734375 C3.45648438 0.03894531 4.15515625 0.05054688 4.875 0.0625 C3.885 0.5575 3.885 0.5575 2.875 1.0625 C2.875 2.0525 2.875 3.0425 2.875 4.0625 C3.865 4.0625 4.855 4.0625 5.875 4.0625 C6.205 3.0725 6.535 2.0825 6.875 1.0625 C7.535 1.0625 8.195 1.0625 8.875 1.0625 C8.875 2.3825 8.875 3.7025 8.875 5.0625 C5.87186252 6.56406874 3.08432478 6.15531204 -0.25 6.125 C-1.53132812 6.11597656 -2.81265625 6.10695312 -4.1328125 6.09765625 C-5.61394531 6.08025391 -5.61394531 6.08025391 -7.125 6.0625 C-7.125 4.4125 -7.125 2.7625 -7.125 1.0625 C-4.60024538 -0.19987731 -2.81299534 -0.03606404 0 0 Z " fill="#A38C55" transform="translate(174.125,218.9375)"/>
<path d="M0 0 C1.63753585 2.45630377 3.23097431 4.90721282 4.75 7.4375 C5.45382813 8.58025391 5.45382813 8.58025391 6.171875 9.74609375 C7 12 7 12 6.44140625 14.12890625 C4.61279514 16.50263178 2.91767244 17.28840923 0.1875 18.5 C-3.65055026 20.29405244 -6.8253341 22.14280069 -10 25 C-7.66271834 19.05055578 -2.5481423 16.5805313 3 14 C2.525625 13.319375 2.05125 12.63875 1.5625 11.9375 C-0.23943727 8.54985793 -0.71254347 5.80879903 -1 2 C-0.67 1.34 -0.34 0.68 0 0 Z " fill="#C5BF8F" transform="translate(109,110)"/>
<path d="M0 0 C4.2707172 2.74546106 8.23029015 5.58931014 12 9 C12 9.66 12 10.32 12 11 C12.99 11 13.98 11 15 11 C15 11.66 15 12.32 15 13 C15.66 13.33 16.32 13.66 17 14 C15.34765625 14.76953125 15.34765625 14.76953125 13 15 C10.30859375 13.19921875 10.30859375 13.19921875 7.4375 10.6875 C4.66678693 8.29273171 2.04873888 6.03249259 -1 4 C-0.67 2.68 -0.34 1.36 0 0 Z " fill="#C0AF76" transform="translate(123,47)"/>
<path d="M0 0 C7.76785714 -0.66964286 7.76785714 -0.66964286 11.4375 2.0625 C14.41954213 5.48093854 14.82473367 7.53070868 15 12 C14.01 12 13.02 12 12 12 C12.33 10.68 12.66 9.36 13 8 C10.36 8.66 7.72 9.32 5 10 C5 9.34 5 8.68 5 8 C4.34 7.67 3.68 7.34 3 7 C3.99 7 4.98 7 6 7 C5.34 6.01 4.68 5.02 4 4 C4 3.01 4 2.02 4 1 C2.68 0.67 1.36 0.34 0 0 Z M8 4 C8 5.32 8 6.64 8 8 C8.99 8 9.98 8 11 8 C10.67 6.68 10.34 5.36 10 4 C9.34 4 8.68 4 8 4 Z " fill="#D5CA8A" transform="translate(128,87)"/>
<path d="M0 0 C1.39456452 0.00667256 2.78911118 0.01863093 4.18359375 0.03515625 C4.89451172 0.03966797 5.60542969 0.04417969 6.33789062 0.04882812 C8.09899388 0.06064761 9.86005411 0.07858362 11.62109375 0.09765625 C11.66810011 3.59375433 11.40165185 6.68271457 10.62109375 10.09765625 C9.96109375 10.09765625 9.30109375 10.09765625 8.62109375 10.09765625 C7.99609375 8.34765625 7.99609375 8.34765625 7.62109375 6.09765625 C8.28109375 4.77765625 8.94109375 3.45765625 9.62109375 2.09765625 C5.66109375 2.09765625 1.70109375 2.09765625 -2.37890625 2.09765625 C-2.04890625 6.38765625 -1.71890625 10.67765625 -1.37890625 15.09765625 C-2.03890625 15.09765625 -2.69890625 15.09765625 -3.37890625 15.09765625 C-4.0276717 10.39410673 -4.61113348 5.85831455 -4.37890625 1.09765625 C-3.37890625 0.09765625 -3.37890625 0.09765625 0 0 Z " fill="#AD9D6D" transform="translate(211.37890625,178.90234375)"/>
<path d="M0 0 C4.62 0 9.24 0 14 0 C14 0.66 14 1.32 14 2 C13.34 2 12.68 2 12 2 C12 3.65 12 5.3 12 7 C10.68 7 9.36 7 8 7 C8 5.35 8 3.7 8 2 C7.01 2 6.02 2 5 2 C5.66 3.65 6.32 5.3 7 7 C4.20171644 6.61402985 3.1794116 6.19863427 1.25 4.0625 C0 2 0 2 0 0 Z " fill="#8D7247" transform="translate(94,218)"/>
<path d="M0 0 C0.97710937 -0.01417969 1.95421875 -0.02835938 2.9609375 -0.04296875 C5.625 0.1875 5.625 0.1875 8.625 2.1875 C4.01426889 3.48426812 0.28659911 2.89859139 -4.375 2.1875 C-4.375 6.4775 -4.375 10.7675 -4.375 15.1875 C-3.715 15.5175 -3.055 15.8475 -2.375 16.1875 C-3.695 15.8575 -5.015 15.5275 -6.375 15.1875 C-6.40185412 12.87506208 -6.42132841 10.5625373 -6.4375 8.25 C-6.44910156 6.96222656 -6.46070313 5.67445313 -6.47265625 4.34765625 C-6.31425148 -0.7783222 -4.64634995 0.03048786 0 0 Z " fill="#A38F5D" transform="translate(192.375,178.8125)"/>
<path d="M0 0 C0.33 0.66 0.66 1.32 1 2 C0.34 2 -0.32 2 -1 2 C-1.99 4.97 -2.98 7.94 -4 11 C-2.02 10.67 -0.04 10.34 2 10 C2 9.34 2 8.68 2 8 C2.99 8.33 3.98 8.66 5 9 C4.67 10.32 4.34 11.64 4 13 C3.34 13 2.68 13 2 13 C1.67 13.66 1.34 14.32 1 15 C0.67 14.34 0.34 13.68 0 13 C-0.99 13 -1.98 13 -3 13 C-3 14.65 -3 16.3 -3 18 C-3.99 18 -4.98 18 -6 18 C-6.50350402 11.04884731 -6.13500456 6.71603571 -2 1 C-1.34 0.67 -0.68 0.34 0 0 Z " fill="#D3D19D" transform="translate(167,88)"/>
<path d="M0 0 C0.66 0 1.32 0 2 0 C1.76378859 6.02339107 1.76378859 6.02339107 -0.26171875 8.61328125 C-2.40473576 10.5295811 -4.11693711 11.97324052 -7.0625 12.0625 C-9.6876335 10.62291066 -11.82161283 9.05736566 -14 7 C-14 6.01 -14 5.02 -14 4 C-13.34 4 -12.68 4 -12 4 C-12 4.66 -12 5.32 -12 6 C-11.071875 6.4640625 -11.071875 6.4640625 -10.125 6.9375 C-8.75 7.625 -7.375 8.3125 -6 9 C-2.07699505 6.64619703 -1.16142685 4.35535069 0 0 Z " fill="#AAA777" transform="translate(162,142)"/>
<path d="M0 0 C-0.33 1.65 -0.66 3.3 -1 5 C-2.65 4.67 -4.3 4.34 -6 4 C-4.68 3.67 -3.36 3.34 -2 3 C-2.33 2.34 -2.66 1.68 -3 1 C-8.57830016 0.87530901 -8.57830016 0.87530901 -14 2 C-14.33 3.98 -14.66 5.96 -15 8 C-14.34 8.33 -13.68 8.66 -13 9 C-13 9.99 -13 10.98 -13 12 C-11.56249809 13.68798827 -11.56249809 13.68798827 -10 15 C-14.875 13.125 -14.875 13.125 -16 12 C-16.42414674 8.61894458 -16.46904194 5.37710194 -16 2 C-12.34061466 -2.01351941 -4.82023611 -2.41011806 0 0 Z " fill="#9A8558" transform="translate(161,180)"/>
<path d="M0 0 C1.67578125 1.1328125 1.67578125 1.1328125 3 3 C3.07421875 5.91796875 3.07421875 5.91796875 2.6875 9.1875 C2.56761719 10.27417969 2.44773438 11.36085938 2.32421875 12.48046875 C2.21722656 13.31191406 2.11023438 14.14335938 2 15 C1.67 15 1.34 15 1 15 C0.34 11.7 -0.32 8.4 -1 5 C-2.98 5 -4.96 5 -7 5 C-7.33 4.01 -7.66 3.02 -8 2 C-4.76746204 -0.15502531 -3.74849077 -0.46856135 0 0 Z " fill="#D4CD95" transform="translate(198,37)"/>
<path d="M0 0 C0.66 -0.33 1.32 -0.66 2 -1 C2.33 0.98 2.66 2.96 3 5 C2.01 5 1.02 5 0 5 C0 4.34 0 3.68 0 3 C-0.66 3 -1.32 3 -2 3 C-2 3.66 -2 4.32 -2 5 C-5.3 5 -8.6 5 -12 5 C-11.67 4.34 -11.34 3.68 -11 3 C-9.68 3 -8.36 3 -7 3 C-7 2.01 -7 1.02 -7 0 C-3.7807732 -1.0730756 -3.09793558 -0.79946725 0 0 Z " fill="#AA9764" transform="translate(205,220)"/>
<path d="M0 0 C6.93 0 13.86 0 21 0 C20.67 1.32 20.34 2.64 20 4 C19.071875 3.67 18.14375 3.34 17.1875 3 C14.07970709 1.85032996 14.07970709 1.85032996 11 2 C10.67 2.99 10.34 3.98 10 5 C10 4.01 10 3.02 10 2 C9.34 2 8.68 2 8 2 C7.67 3.32 7.34 4.64 7 6 C6.34 6 5.68 6 5 6 C5 4.68 5 3.36 5 2 C3.35 1.67 1.7 1.34 0 1 C0 0.67 0 0.34 0 0 Z " fill="#BCA572" transform="translate(187,218)"/>
<path d="M0 0 C0.66 0 1.32 0 2 0 C2 0.66 2 1.32 2 2 C2.99 2 3.98 2 5 2 C7.80396138 6.94816714 6.77350507 11.61682285 6 17 C5.01 16.67 4.02 16.34 3 16 C2.95101562 15.34773438 2.90203125 14.69546875 2.8515625 14.0234375 C2.42757771 9.06720147 1.84334427 4.66980549 0 0 Z " fill="#C1AE7A" transform="translate(103,83)"/>
<path d="M0 0 C2.475 0.99 2.475 0.99 5 2 C5 2.66 5 3.32 5 4 C7.475 4.99 7.475 4.99 10 6 C10 6.33 10 6.66 10 7 C5.05 7 0.1 7 -5 7 C-3.35 4.69 -1.7 2.38 0 0 Z " fill="#C5AE75" transform="translate(213,188)"/>
<path d="M0 0 C3.14624993 -0.26218749 4.61837017 -0.24754367 7.3125 1.5 C8.1478125 2.2425 8.1478125 2.2425 9 3 C9.99 2.34 10.98 1.68 12 1 C11.34 2.32 10.68 3.64 10 5 C8.68 5 7.36 5 6 5 C6.33 6.32 6.66 7.64 7 9 C6.34 9 5.68 9 5 9 C5 8.34 5 7.68 5 7 C4.34 7 3.68 7 3 7 C0.70351351 4.4385343 0 3.52032428 0 0 Z " fill="#927446" transform="translate(104,179)"/>
<path d="M0 0 C2.42130331 3.63195496 2.21022785 5.38349348 2.125 9.6875 C2.10695313 10.86699219 2.08890625 12.04648438 2.0703125 13.26171875 C2.03550781 14.61716797 2.03550781 14.61716797 2 16 C0.68 15.67 -0.64 15.34 -2 15 C-3.45295405 5.98468271 -3.45295405 5.98468271 -1.5625 1.875 C-1.046875 1.25625 -0.53125 0.6375 0 0 Z " fill="#D8D199" transform="translate(71,149)"/>
<path d="M0 0 C6.95312448 0.31605111 13.25429835 3.13026088 19 7 C19.65478516 9.10424805 19.65478516 9.10424805 20 11 C13.33333333 7.66666667 6.66666667 4.33333333 0 1 C0 0.67 0 0.34 0 0 Z " fill="#4D4C39" transform="translate(196,115)"/>
<path d="M0 0 C1.95825873 -0.02694851 3.91662226 -0.04637218 5.875 -0.0625 C6.96554688 -0.07410156 8.05609375 -0.08570313 9.1796875 -0.09765625 C12 0 12 0 14 1 C14 1.66 14 2.32 14 3 C9.38 3 4.76 3 0 3 C0 2.01 0 1.02 0 0 Z " fill="#AB8F5A" transform="translate(114,206)"/>
<path d="M0 0 C4.95 0 9.9 0 15 0 C15.33 1.32 15.66 2.64 16 4 C15.01 4.495 15.01 4.495 14 5 C13.67 4.01 13.34 3.02 13 2 C9.37 2 5.74 2 2 2 C1.67 6.62 1.34 11.24 1 16 C0.67 16 0.34 16 0 16 C0 10.72 0 5.44 0 0 Z " fill="#846A46" transform="translate(85,179)"/>
<path d="M0 0 C2 2 2 2 2.5 4.3125 C1.73414903 8.42894896 -0.67607566 9.57630517 -4 12 C-4.33 11.34 -4.66 10.68 -5 10 C-7.3140622 9.26924352 -9.64828869 8.59861742 -12 8 C-9.04335481 6.5216774 -6.25770263 6.93967217 -3 7 C-2.01 4.69 -1.02 2.38 0 0 Z " fill="#C4C081" transform="translate(181,96)"/>
<path d="M0 0 C3.96 0 7.92 0 12 0 C12.33 0.99 12.66 1.98 13 3 C8.71 3 4.42 3 0 3 C0 2.01 0 1.02 0 0 Z " fill="#988253" transform="translate(160,206)"/>
<path d="M0 0 C0.99 0.33 1.98 0.66 3 1 C4.35384615 8.38461538 4.35384615 8.38461538 2.5625 11.5 C2.046875 11.995 1.53125 12.49 1 13 C-0.32 12.67 -1.64 12.34 -3 12 C-1.68 11.67 -0.36 11.34 1 11 C1.33 9.35 1.66 7.7 2 6 C0.02 6.99 0.02 6.99 -2 8 C-1.625 6.0625 -1.625 6.0625 -1 4 C-0.34 3.67 0.32 3.34 1 3 C0.67 2.01 0.34 1.02 0 0 Z " fill="#A99662" transform="translate(200,181)"/>
<path d="M0 0 C0.99 0 1.98 0 3 0 C3 2.31 3 4.62 3 7 C1.02 7.99 1.02 7.99 -1 9 C-1 8.34 -1 7.68 -1 7 C-2.65 7.33 -4.3 7.66 -6 8 C-6 7.34 -6 6.68 -6 6 C-5.195625 5.525625 -4.39125 5.05125 -3.5625 4.5625 C-0.7081924 3.20016328 -0.7081924 3.20016328 0 0 Z " fill="#ABA86D" transform="translate(140,99)"/>
<path d="M0 0 C2.97 1.65 5.94 3.3 9 5 C9 6.32 9 7.64 9 9 C5.7 7.35 2.4 5.7 -1 4 C-0.67 2.68 -0.34 1.36 0 0 Z " fill="#B59A68" transform="translate(113,41)"/>
<path d="M0 0 C2.97 0 5.94 0 9 0 C9 1.32 9 2.64 9 4 C6.36 4 3.72 4 1 4 C0.67 2.68 0.34 1.36 0 0 Z " fill="#AE9157" transform="translate(150,191)"/>
<path d="M0 0 C0.99 0 1.98 0 3 0 C4 3 4 3 3.0625 5.1875 C2.711875 5.785625 2.36125 6.38375 2 7 C1.34 7 0.68 7 0 7 C0 7.66 0 8.32 0 9 C-2.64 9 -5.28 9 -8 9 C-8 8.67 -8 8.34 -8 8 C-6.35 8 -4.7 8 -3 8 C-1.7095826 5.41916521 -0.89351752 2.74012041 0 0 Z " fill="#B19860" transform="translate(177,186)"/>
<path d="M0 0 C0.33 0 0.66 0 1 0 C1.103125 1.051875 1.20625 2.10375 1.3125 3.1875 C1.98746557 6.93049091 3.03376023 8.83691863 5 12 C5 13.32 5 14.64 5 16 C2 15 2 15 0.8203125 13.296875 C-0.1819244 10.49061169 -0.19578721 8.22306264 -0.125 5.25 C-0.09792969 3.77273437 -0.09792969 3.77273437 -0.0703125 2.265625 C-0.04710938 1.51796875 -0.02390625 0.7703125 0 0 Z " fill="#D1CF90" transform="translate(86,149)"/>
<path d="M0 0 C4.63720719 3.27530896 8.68542782 6.30435607 12 11 C11.67 11.66 11.34 12.32 11 13 C9.34487752 11.59419724 7.70117794 10.17493734 6.0625 8.75 C5.14597656 7.96109375 4.22945312 7.1721875 3.28515625 6.359375 C1.08473751 4.08748967 0.33167445 3.07680978 0 0 Z " fill="#75634D" transform="translate(191,123)"/>
<path d="M0 0 C0.33 1.32 0.66 2.64 1 4 C2.04800781 3.89171875 2.04800781 3.89171875 3.1171875 3.78125 C4.02726563 3.6884375 4.93734375 3.595625 5.875 3.5 C7.23238281 3.36078125 7.23238281 3.36078125 8.6171875 3.21875 C11 3 11 3 13 3 C13.33 2.01 13.66 1.02 14 0 C14.66 0 15.32 0 16 0 C16 1.32 16 2.64 16 4 C12.99686252 5.50156874 10.20932478 5.09281204 6.875 5.0625 C5.59367188 5.05347656 4.31234375 5.04445312 2.9921875 5.03515625 C1.51105469 5.01775391 1.51105469 5.01775391 0 5 C0 3.35 0 1.7 0 0 Z " fill="#96875B" transform="translate(167,220)"/>
<path d="M0 0 C0.33 0 0.66 0 1 0 C1 4.29 1 8.58 1 13 C0.01 13 -0.98 13 -2 13 C-3.71050559 8.02398374 -2.00885647 4.57383705 0 0 Z " fill="#9B7337" transform="translate(78,181)"/>
<path d="M0 0 C2 1 2 1 3.125 3.3125 C4 6 4 6 4 10 C3.34 10 2.68 10 2 10 C2 9.34 2 8.68 2 8 C1.01 7.67 0.02 7.34 -1 7 C-1.625 4.625 -1.625 4.625 -2 2 C-1.34 1.34 -0.68 0.68 0 0 Z " fill="#B8A76F" transform="translate(103,75)"/>
<path d="M0 0 C0.99 0.99 1.98 1.98 3 3 C2.85546875 5.69921875 2.85546875 5.69921875 2.1875 8.6875 C1.97480469 9.68136719 1.76210937 10.67523438 1.54296875 11.69921875 C1.36378906 12.45847656 1.18460938 13.21773437 1 14 C0.34 14 -0.32 14 -1 14 C-0.67 9.38 -0.34 4.76 0 0 Z " fill="#D8D7A9" transform="translate(199,65)"/>
<path d="M0 0 C1.65 0 3.3 0 5 0 C4.01 1.485 4.01 1.485 3 3 C5.29629994 4.14814997 7.07698086 4.30769809 9.625 4.5625 C10.44226563 4.64628906 11.25953125 4.73007813 12.1015625 4.81640625 C12.72804688 4.87699219 13.35453125 4.93757812 14 5 C14 5.33 14 5.66 14 6 C11.85423363 6.02685938 9.70837355 6.04633088 7.5625 6.0625 C6.36753906 6.07410156 5.17257813 6.08570313 3.94140625 6.09765625 C1 6 1 6 0 5 C-0.04063832 3.33382885 -0.042721 1.66611905 0 0 Z " fill="#88764B" transform="translate(110,219)"/>
<path d="M0 0 C2.79192205 -0.05380578 5.5828141 -0.09357669 8.375 -0.125 C9.1690625 -0.14175781 9.963125 -0.15851563 10.78125 -0.17578125 C12.85492015 -0.19335473 14.92883241 -0.10335168 17 0 C17.66 0.66 18.32 1.32 19 2 C14.7157464 3.1684328 11.35203283 2.63302296 7 2 C5.88625 2.309375 5.88625 2.309375 4.75 2.625 C4.1725 2.74875 3.595 2.8725 3 3 C1.390625 1.5234375 1.390625 1.5234375 0 0 Z " fill="#988151" transform="translate(111,218)"/>
<path d="M0 0 C5.78461538 3.44615385 5.78461538 3.44615385 6.875 6.25 C6.936875 7.11625 6.936875 7.11625 7 8 C4.0280615 6.87548273 1.66559313 5.77706209 -1 4 C-0.67 2.68 -0.34 1.36 0 0 Z " fill="#C0A86B" transform="translate(123,47)"/>
<path d="M0 0 C3.3 0 6.6 0 10 0 C10 1.32 10 2.64 10 4 C8.68 4.33 7.36 4.66 6 5 C6.33 4.34 6.66 3.68 7 3 C5.02 3 3.04 3 1 3 C0.67 2.01 0.34 1.02 0 0 Z " fill="#B2B284" transform="translate(147,106)"/>
<path d="M0 0 C3.31861088 1.36648683 5.58079675 2.85913223 8.1875 5.3125 C8.1875 5.9725 8.1875 6.6325 8.1875 7.3125 C5.0737404 5.81328242 2.14950977 4.08970586 -0.8125 2.3125 C-2.13858822 1.63153578 -3.46936601 0.95919414 -4.8125 0.3125 C-2.8125 -0.6875 -2.8125 -0.6875 0 0 Z " fill="#42432F" transform="translate(199.8125,122.6875)"/>
<path d="M0 0 C0 1.98 0 3.96 0 6 C-0.99 6 -1.98 6 -3 6 C-3 5.34 -3 4.68 -3 4 C-3.66 4 -4.32 4 -5 4 C-5.33 4.66 -5.66 5.32 -6 6 C-6.33 5.34 -6.66 4.68 -7 4 C-4.60295303 0.40442955 -4.24628445 0 0 0 Z " fill="#EDE698" transform="translate(180,96)"/>
<path d="M0 0 C0.33 0.66 0.66 1.32 1 2 C1.66 2 2.32 2 3 2 C3 2.99 3 3.98 3 5 C4.32 5.66 5.64 6.32 7 7 C4 8 4 8 1 7 C0.01 7 -0.98 7 -2 7 C-1.34 4.69 -0.68 2.38 0 0 Z " fill="#CBC78D" transform="translate(157,134)"/>
<path d="M0 0 C1.32 0 2.64 0 4 0 C3.5206753 4.31392226 2.2542015 6.16569547 -1 9 C-1.99 8.67 -2.98 8.34 -4 8 C-2.35 6.35 -0.7 4.7 1 3 C0.34 2.34 -0.32 1.68 -1 1 C-0.67 0.67 -0.34 0.34 0 0 Z " fill="#CBC8A1" transform="translate(182,65)"/>
<path d="M0 0 C3.63 0 7.26 0 11 0 C10 2 10 2 6.9375 3.125 C5.4834375 3.558125 5.4834375 3.558125 4 4 C3.67 3.34 3.34 2.68 3 2 C2.01 2 1.02 2 0 2 C0 1.34 0 0.68 0 0 Z " fill="#947D45" transform="translate(152,219)"/>
<path d="M0 0 C1.45823212 -0.0270043 2.91660675 -0.04639787 4.375 -0.0625 C5.18710938 -0.07410156 5.99921875 -0.08570313 6.8359375 -0.09765625 C9 0 9 0 11 1 C10.67 2.65 10.34 4.3 10 6 C8.35 5.67 6.7 5.34 5 5 C6.32 4.67 7.64 4.34 9 4 C8.67 3.34 8.34 2.68 8 2 C5.03 2 2.06 2 -1 2 C-0.67 1.34 -0.34 0.68 0 0 Z " fill="#8D7C52" transform="translate(150,179)"/>
<path d="M0 0 C0 0.33 0 0.66 0 1 C-1.216875 1.268125 -2.43375 1.53625 -3.6875 1.8125 C-7.23663314 2.68564957 -9.91819696 4.00589215 -13 6 C-13.66 6 -14.32 6 -15 6 C-14 3 -14 3 -11.85546875 1.796875 C-10.97503906 1.45140625 -10.09460938 1.1059375 -9.1875 0.75 C-8.31480469 0.39421875 -7.44210938 0.0384375 -6.54296875 -0.328125 C-3.86358764 -1.03604136 -2.56787877 -0.9337741 0 0 Z " fill="#908F76" transform="translate(103,110)"/>
<path d="M0 0 C0.33 0 0.66 0 1 0 C1.91457003 5.56157448 2.32086397 9.675665 0 15 C-0.66 14.34 -1.32 13.68 -2 13 C-1.7578125 9.9609375 -1.7578125 9.9609375 -1.125 6.375 C-0.92132813 5.18648438 -0.71765625 3.99796875 -0.5078125 2.7734375 C-0.34023437 1.85820313 -0.17265625 0.94296875 0 0 Z " fill="#CAC490" transform="translate(197,93)"/>
<path d="M0 0 C2.4375 1.5625 2.4375 1.5625 5 4 C5.8125 7.75 5.8125 7.75 6 11 C5.01 11 4.02 11 3 11 C3.33 9.68 3.66 8.36 4 7 C3.34 7 2.68 7 2 7 C0.5393715 4.35261084 0 3.10551666 0 0 Z " fill="#C6C38C" transform="translate(137,88)"/>
<path d="M0 0 C0.66 0.33 1.32 0.66 2 1 C0.8553125 2.0828125 0.8553125 2.0828125 -0.3125 3.1875 C-3.044086 5.83926978 -3.044086 5.83926978 -4.6875 8.8125 C-5.120625 9.534375 -5.55375 10.25625 -6 11 C-6.66 11 -7.32 11 -8 11 C-7.91433603 8.087425 -7.42089045 6.43201976 -5.375 4.33203125 C-3.61608625 2.83908228 -1.83686981 1.39563738 0 0 Z " fill="#C1BA94" transform="translate(183,48)"/>
<path d="M0 0 C0 0.99 0 1.98 0 3 C-2.64 3 -5.28 3 -8 3 C-8 2.01 -8 1.02 -8 0 C-4.71303767 -0.79953138 -3.28976808 -1.09658936 0 0 Z " fill="#BCA56C" transform="translate(198,192)"/>
<path d="M0 0 C1.65 0 3.3 0 5 0 C5.66 2.31 6.32 4.62 7 7 C4.20171644 6.61402985 3.1794116 6.19863427 1.25 4.0625 C0 2 0 2 0 0 Z " fill="#947D4F" transform="translate(94,218)"/>
<path d="M0 0 C1.258125 -0.020625 2.51625 -0.04125 3.8125 -0.0625 C4.52019531 -0.07410156 5.22789062 -0.08570312 5.95703125 -0.09765625 C8 0 8 0 11 1 C11 1.99 11 2.98 11 4 C7.1936543 3.32829194 3.64793184 2.27253436 0 1 C0 0.67 0 0.34 0 0 Z " fill="#E3E1A8" transform="translate(169,87)"/>
<path d="M0 0 C2.64 0 5.28 0 8 0 C8 0.99 8 1.98 8 3 C5.36 3 2.72 3 0 3 C0 2.01 0 1.02 0 0 Z " fill="#BEAC79" transform="translate(152,206)"/>
<path d="M0 0 C2.97 0 5.94 0 9 0 C9.33 0.99 9.66 1.98 10 3 C7.36 3 4.72 3 2 3 C2 2.34 2 1.68 2 1 C1.34 0.67 0.68 0.34 0 0 Z " fill="#C4B47B" transform="translate(126,206)"/>
<path d="M0 0 C0.99 0 1.98 0 3 0 C3.625 2.3125 3.625 2.3125 4 5 C3.01 6.485 3.01 6.485 2 8 C1.34 7.67 0.68 7.34 0 7 C0 4.69 0 2.38 0 0 Z " fill="#9D7633" transform="translate(87,183)"/>
<path d="M0 0 C0.66 0.33 1.32 0.66 2 1 C0.73058503 4.91402949 -0.51167694 6.79072873 -4 9 C-3.46930939 5.17902761 -2.50298434 2.93828597 0 0 Z " fill="#74715D" transform="translate(172,156)"/>
<path d="M0 0 C0.99 0.33 1.98 0.66 3 1 C2.67 2.32 2.34 3.64 2 5 C1.34 5 0.68 5 0 5 C-0.33 5.66 -0.66 6.32 -1 7 C-1.33 6.34 -1.66 5.68 -2 5 C-4.02463255 4.34786708 -4.02463255 4.34786708 -6 4 C-6 3.67 -6 3.34 -6 3 C-4.02 2.67 -2.04 2.34 0 2 C0 1.34 0 0.68 0 0 Z " fill="#DCD693" transform="translate(169,96)"/>
<path d="M0 0 C0.66 0 1.32 0 2 0 C2 0.66 2 1.32 2 2 C3.32 2.66 4.64 3.32 6 4 C6 4.99 6 5.98 6 7 C1.2 4.53846154 1.2 4.53846154 0.1875 1.8125 C0.125625 1.214375 0.06375 0.61625 0 0 Z " fill="#9D9B6B" transform="translate(148,146)"/>
<path d="M0 0 C0.433125 0.66 0.86625 1.32 1.3125 2 C2.1478125 2.99 2.1478125 2.99 3 4 C3.99 4 4.98 4 6 4 C6 4.99 6 5.98 6 7 C3.03 6.505 3.03 6.505 0 6 C-1.125 2.25 -1.125 2.25 0 0 Z " fill="#AEB095" transform="translate(143,114)"/>
<path d="M0 0 C-2.65197185 2.65197185 -5.55356766 3.584501 -9 5 C-9.99 5.495 -9.99 5.495 -11 6 C-8.60159776 0.46522561 -5.82500047 -0.25888891 0 0 Z " fill="#BBBA99" transform="translate(176,78)"/>
<path d="M0 0 C2 2 2 2 2.375 4.4375 C2 7 2 7 -2 10 C-1.34 6.7 -0.68 3.4 0 0 Z " fill="#C7C38F" transform="translate(181,96)"/>
<path d="M0 0 C3.52269485 -0.4025937 4.79940808 -0.13372795 7.8125 1.875 C8.534375 2.57625 9.25625 3.2775 10 4 C10 4.66 10 5.32 10 6 C6.66666667 4.33333333 3.33333333 2.66666667 0 1 C0 0.67 0 0.34 0 0 Z " fill="#ACAB8A" transform="translate(129,78)"/>
<path d="M0 0 C0.33 0.66 0.66 1.32 1 2 C1.66 2 2.32 2 3 2 C3 2.99 3 3.98 3 5 C1.1875 6.0625 1.1875 6.0625 -1 7 C-1.99 6.67 -2.98 6.34 -4 6 C-3.525625 5.566875 -3.05125 5.13375 -2.5625 4.6875 C-0.76313043 2.97690387 -0.76313043 2.97690387 0 0 Z " fill="#AC9F7C" transform="translate(115,76)"/>
<path d="M0 0 C0.33 0.66 0.66 1.32 1 2 C2.32 1.34 3.64 0.68 5 0 C5 1.32 5 2.64 5 4 C3.35 4.33 1.7 4.66 0 5 C-0.5625 3.0625 -0.5625 3.0625 -1 1 C-0.67 0.67 -0.34 0.34 0 0 Z " fill="#ECE498" transform="translate(171,91)"/>
<path d="M0 0 C2.31 0 4.62 0 7 0 C7 1.32 7 2.64 7 4 C6.01 4 5.02 4 4 4 C3.67 3.34 3.34 2.68 3 2 C2.01 2 1.02 2 0 2 C0 1.34 0 0.68 0 0 Z " fill="#917D42" transform="translate(144,219)"/>
<path d="M0 0 C1.98 0 3.96 0 6 0 C6 0.99 6 1.98 6 3 C4.02 3 2.04 3 0 3 C0 2.01 0 1.02 0 0 Z " fill="#8E6E3E" transform="translate(114,206)"/>
<path d="M0 0 C0.33 0.66 0.66 1.32 1 2 C2.65 1.67 4.3 1.34 6 1 C6 1.66 6 2.32 6 3 C3.69 3.33 1.38 3.66 -1 4 C-0.67 2.68 -0.34 1.36 0 0 Z " fill="#957D58" transform="translate(105,191)"/>
<path d="M0 0 C1.32 0 2.64 0 4 0 C4 1.65 4 3.3 4 5 C3.01 5.33 2.02 5.66 1 6 C0.67 4.02 0.34 2.04 0 0 Z " fill="#BCB27F" transform="translate(183,139)"/>
<path d="M0 0 C2.31 0 4.62 0 7 0 C6.67 0.99 6.34 1.98 6 3 C4.02 3 2.04 3 0 3 C0 2.01 0 1.02 0 0 Z " fill="#A5A367" transform="translate(170,105)"/>
<path d="M0 0 C1.98 0 3.96 0 6 0 C5.67 1.32 5.34 2.64 5 4 C4.34 4 3.68 4 3 4 C2.67 4.66 2.34 5.32 2 6 C1.34 4.02 0.68 2.04 0 0 Z M3 1 C3 1.66 3 2.32 3 3 C3.66 3 4.32 3 5 3 C5 2.34 5 1.68 5 1 C4.34 1 3.68 1 3 1 Z " fill="#D0C185" transform="translate(125,97)"/>
<path d="M0 0 C2.5 1.375 2.5 1.375 5 3 C5 3.66 5 4.32 5 5 C3.35 5 1.7 5 0 5 C0 3.33333333 0 1.66666667 0 0 Z " fill="#AB945D" transform="translate(113,41)"/>
<path d="M0 0 C0.66 0 1.32 0 2 0 C2 2.31 2 4.62 2 7 C0.68 6.67 -0.64 6.34 -2 6 C-1.34 4.02 -0.68 2.04 0 0 Z " fill="#A48861" transform="translate(131,218)"/>
<path d="M0 0 C2.64 0 5.28 0 8 0 C8 1.65 8 3.3 8 5 C7.34 4.67 6.68 4.34 6 4 C6 3.34 6 2.68 6 2 C3.03 1.505 3.03 1.505 0 1 C0 0.67 0 0.34 0 0 Z " fill="#8F7446" transform="translate(90,185)"/>
<path d="M0 0 C0.99 0.33 1.98 0.66 3 1 C3.33 2.65 3.66 4.3 4 6 C3.34 6 2.68 6 2 6 C2 5.34 2 4.68 2 4 C1.01 3.67 0.02 3.34 -1 3 C-0.67 2.01 -0.34 1.02 0 0 Z " fill="#A67E3E" transform="translate(132,182)"/>
<path d="M0 0 C2.31 0 4.62 0 7 0 C6.01 0.495 6.01 0.495 5 1 C5 1.66 5 2.32 5 3 C2.03 2.505 2.03 2.505 -1 2 C-0.67 1.34 -0.34 0.68 0 0 Z " fill="#D4D6A2" transform="translate(135,132)"/>
<path d="M0 0 C2.04119788 1.61594832 4.04072937 3.2856382 6 5 C6 5.66 6 6.32 6 7 C3.53199953 5.84826645 1.95216435 4.95216435 0 3 C0 2.01 0 1.02 0 0 Z " fill="#CEC997" transform="translate(122,100)"/>
<path d="M0 0 C1.74627478 2.61941217 2.38722388 4.03824877 3 7 C1.68 5.68 0.36 4.36 -1 3 C-0.67 2.01 -0.34 1.02 0 0 Z " fill="#8B8B7A" transform="translate(119,158)"/>
<path d="M0 0 C0.99 0.495 0.99 0.495 2 1 C1.67 2.65 1.34 4.3 1 6 C0.67 6 0.34 6 0 6 C0 4.02 0 2.04 0 0 Z " fill="#6F7059" transform="translate(146,159)"/>
<path d="M0 0 C0.99 0.495 0.99 0.495 2 1 C2 1.66 2 2.32 2 3 C1.34 3 0.68 3 0 3 C0 2.01 0 1.02 0 0 Z " fill="#74745B" transform="translate(140,113)"/>
<path d="M0 0 C0.66 0 1.32 0 2 0 C2 0.66 2 1.32 2 2 C1.34 2 0.68 2 0 2 C0 1.34 0 0.68 0 0 Z " fill="#73736D" transform="translate(137,113)"/>
<path d="M0 0 C2 1 2 1 2 1 Z " fill="#818177" transform="translate(137,116)"/>
<path d="M0 0 C2 1 2 1 2 1 Z " fill="#808069" transform="translate(164,115)"/>
<path d="M0 0 C2 1 2 1 2 1 Z " fill="#969687" transform="translate(161,114)"/>
<path d="M0 0 C2 1 2 1 2 1 Z " fill="#80807C" transform="translate(164,113)"/>
<path d="" fill="#707060" transform="translate(0,0)"/>
<path d="" fill="#9B9B8F" transform="translate(0,0)"/>
<path d="" fill="#555555" transform="translate(0,0)"/>
<path d="" fill="#494949" transform="translate(0,0)"/>
<path d="" fill="#868680" transform="translate(0,0)"/>
<path d="" fill="#909088" transform="translate(0,0)"/>
<path d="" fill="#808080" transform="translate(0,0)"/>
<path d="" fill="#95957F" transform="translate(0,0)"/>
</svg>
